<svg xmlns="http://www.w3.org/2000/svg" width="291.62" height="184.352" viewBox="0 0 300 300">
  <g id="SVGRepo_iconCarrier" transform="translate(-1.994 -8.107)">
    <path id="Path_1" data-name="Path 1" d="M168.838,11.638c-5.829,5.018-7.927,13.3-7.927,36.213a25.477,25.477,0,0,1,7.271-7.172,28.839,28.839,0,0,0,7.461-6.509c4.925-5.846,5.61-13.3,5.61-25.941C181.253,8.23,173.195,7.851,168.838,11.638Zm-34.229,5.42c-4.663,6.769-6.091,17.491-6.091,17.491l-15.708,98.012L99.856,52.206c-1.268-8.4-3.585-19.124-7.213-26.2a17.526,17.526,0,0,0-14.79-9.491A17.8,17.8,0,0,0,62.9,26.147c-3.585,7.172-5.916,17.775-7.184,26.225L42.765,132.727,27.232,34.573s-1.341-10.864-6.091-17.491C13.433,6.076,1.994,8.4,1.994,8.4L31.837,192.16s9.865,1.231,14.79-2.982c6.426-5.3,9.6-9.491,13.537-34.627C63.675,132.3,73.453,66.881,74.356,62.124c.423-2.32,1.02-7.858,3.512-7.858,2.608,0,3.118,5.42,3.512,7.858C82.312,66.739,92,132.3,95.6,154.55c3.905,24.971,7.009,29.042,13.537,34.627,4.925,4.213,14.79,2.982,14.79,2.982L153.771,8.514a19.652,19.652,0,0,0-19.162,8.544Zm46.643,21.3a28.282,28.282,0,0,1-6.12,8.686c-2.739,2.462-5.348,4.213-8.189,6.414-4.707,3.645-6.033,7.858-6.033,14.083v124.64s7.606,1.491,12.444-2.462c6.353-5.254,7.767-10.3,7.883-33.231V38.36Zm74.49,62.3L293.614,8.94s-15.97-4.473-23.912,7.314C264.6,23.709,258.948,37.2,258.948,37.2l-13.872,32.8c-.772,1.633-1.515,3.55-2.914,3.55-1.443,0-2.346-1.775-2.943-3.55L225.2,37.295s-5.61-13.444-10.783-20.923c-7.869-11.811-23.912-7.337-23.912-7.337l37.93,91.48-37.93,91.314s16.7,3.527,24.6-8.284c5.1-7.456,10.025-19.811,10.025-19.811L238.971,131c.772-1.609,1.515-3.479,2.914-3.479,1.457,0,2.346,1.775,2.943,3.479L258.7,163.734s5.173,12.071,10.2,19.811c7.84,11.811,24.291,8.284,24.291,8.284l-37.449-91.172Z" transform="translate(0 0)" fill="#A5AB6D"/>
  </g>
</svg>
